# xmcd CD database file
#
# Track frame offsets:
#	183
#	24723
#	45673
#	66755
#
# Disc length: 1136 seconds
#
# Revision: 3
# Processed by: cddbd v1.5.2PL0 Copyright (c) Steve Scherf et al.
# Submitted via: CDex 1.50
#
DISCID=2f046e04
DTITLE=Rainbirds - Blueprint  (Maxi)
DYEAR=1994
DGENRE=Pop
TTITLE0=Blueprint
TTITLE1=Someone Sometime
TTITLE2=Fool to Cry
TTITLE3=Todos Contentos y yo tambien
EXTD=YEAR: 1994
EXTT0=
EXTT1=
EXTT2=
EXTT3=
PLAYORDER=
